<?xml version="1.0" standalone="no"?>
<!DOCTYPE svg PUBLIC "-//W3C//DTD SVG 20010904//EN"
 "http://www.w3.org/TR/2001/REC-SVG-20010904/DTD/svg10.dtd">
<svg version="1.0" xmlns="http://www.w3.org/2000/svg"
 width="225.000000pt" height="152.000000pt" viewBox="0 0 225.000000 152.000000"
 preserveAspectRatio="xMidYMid meet">

<g transform="translate(0.000000,152.000000) scale(0.100000,-0.100000)"
fill="#000000" stroke="none">
<path d="M1147 1480 c-15 -17 -29 -47 -33 -67 -8 -43 10 -153 35 -208 l18 -40
6 50 c3 28 18 91 32 142 32 112 31 147 -6 151 -19 2 -33 -5 -52 -28z"/>
<path d="M1532 1303 c-10 -21 -29 -65 -42 -98 -13 -33 -27 -65 -31 -70 -4 -6
-13 -23 -18 -38 -10 -26 -10 -27 12 -16 55 29 119 84 142 123 29 49 31 82 9
114 -23 34 -51 28 -72 -15z"/>
<path d="M827 1232 c-21 -23 -22 -64 -3 -100 17 -32 71 -84 105 -102 22 -11
23 -11 16 6 -4 11 -20 57 -36 103 -39 113 -51 127 -82 93z"/>
<path d="M1075 1092 c-6 -4 -22 -23 -37 -43 -18 -24 -40 -39 -70 -48 -217 -64
-371 -324 -329 -556 15 -82 75 -198 125 -242 51 -44 143 -89 213 -104 42 -8
62 -19 88 -47 l34 -37 53 19 c193 68 323 264 369 558 20 131 -15 289 -85 381
-37 49 -112 102 -164 117 -42 11 -182 13 -197 2z m182 -57 c144 -43 245 -241
229 -450 -8 -103 -39 -223 -73 -288 -57 -105 -180 -205 -285 -231 -33 -8 -39
2 -67 103 l-20 71 39 0 c116 0 238 79 287 186 42 93 44 246 2 259 -13 4 -19
15 -19 35 0 54 -89 120 -162 120 -37 0 -99 -33 -113 -61 -19 -36 -19 -102 0
-139 26 -51 61 -70 128 -70 57 0 62 2 98 39 20 22 40 37 43 34 3 -4 6 -38 6
-77 0 -123 -73 -235 -175 -270 -73 -24 -145 -20 -145 9 0 13 67 58 122 82 15
6 30 23 33 36 8 31 -19 97 -40 97 -23 0 -29 -26 -11 -52 9 -12 16 -27 16 -34
0 -12 -119 -68 -128 -59 -12 11 -14 431 -3 503 14 92 38 151 65 162 34 14 118
11 173 -5z m-261 -97 c-3 -13 -9 -53 -12 -90 l-7 -68 -36 0 c-81 0 -128 -63
-108 -143 13 -50 70 -100 108 -95 33 5 34 2 44 -144 3 -61 2 -88 -6 -88 -6 0
-38 27 -71 61 -56 58 -88 71 -88 35 0 -24 93 -114 136 -131 39 -15 42 -19 48
-67 4 -28 5 -53 2 -56 -3 -2 -33 6 -67 18 -71 27 -165 108 -206 177 -35 61
-63 155 -63 217 0 66 23 156 56 216 46 84 171 168 268 179 4 1 6 -9 2 -21z
m268 -169 c53 -63 20 -159 -54 -159 -98 0 -143 101 -73 166 39 36 94 33 127
-7z m-296 -38 c9 -5 12 -27 10 -72 l-3 -64 -34 -3 c-42 -4 -81 29 -81 70 0 53
67 96 108 69z"/>
<path d="M1120 925 c-36 -16 -85 -72 -85 -96 0 -26 41 -22 53 6 16 35 69 65
117 65 70 0 145 -62 145 -119 0 -24 25 -45 45 -37 45 17 -24 125 -108 167 -52
27 -123 33 -167 14z"/>
</g>
</svg>
